<svg id="레이어_1" data-name="레이어 1" xmlns="http://www.w3.org/2000/svg" viewBox="0 0 397 87"><defs><style>.cls-1{fill:#3c6eeb;}.cls-2{fill:#c6c6c6;}</style></defs><path class="cls-1" d="M24.71,62.51v-43h18.1q9.81,0,15.76,5.66T64.52,41q0,10.18-5.95,15.85T42.81,62.51ZM42.37,28.07H34.58V53.9h7.79q5.63,0,8.8-3.36T54.33,41q0-6.21-3.16-9.56T42.37,28.07Z"/><path class="cls-1" d="M85.28,63.39q-8.1,0-13-5a16.83,16.83,0,0,1-4.94-12.34q0-7.78,4.78-12.66a16.3,16.3,0,0,1,12.18-4.87q7.28,0,11.62,4.43t4.33,11.71a30.64,30.64,0,0,1-.31,4h-23q1.32,6.51,8.92,6.52a10.43,10.43,0,0,0,8.48-4.31l5.13,6.39A18.21,18.21,0,0,1,85.28,63.39Zm-1-27.09q-5.51,0-7.09,5.32H90.85a5.41,5.41,0,0,0-2-4A7.29,7.29,0,0,0,84.27,36.3Z"/><path class="cls-1" d="M110.55,62.51l-9.63-33.17h9.29l5.24,20.19,5.93-20.19h9.34l5.92,20.19,5.24-20.19h9.29l-9.63,33.17h-8.77l-6.72-21.33-6.72,21.33Z"/><path class="cls-1" d="M165.07,63.46a18.15,18.15,0,0,1-14-6.14l5-6.14a14.85,14.85,0,0,0,4.3,3.26,11.22,11.22,0,0,0,5.13,1.3,7,7,0,0,0,3.61-.8,2.34,2.34,0,0,0,1.33-2,2,2,0,0,0-1-1.87,9.74,9.74,0,0,0-3.16-1l-3-.51a13.09,13.09,0,0,1-7.34-3.48,9.29,9.29,0,0,1-2.6-6.77A9.53,9.53,0,0,1,157,31.56q3.74-3,10-3,7.34,0,11.71,4.81l-4.81,6.14a10.43,10.43,0,0,0-7.34-3.23,4.77,4.77,0,0,0-2.73.66,2.12,2.12,0,0,0-1,1.81q0,1.83,2.73,2.28l3,.5Q180,43.26,180,52.25a9.88,9.88,0,0,1-4,8Q172.09,63.46,165.07,63.46Z"/><path class="cls-2" d="M184.06,73V29.34h9.68v3.48a12.68,12.68,0,0,1,9.88-4.3A14.89,14.89,0,0,1,215,33.26q4.43,4.76,4.43,12.66T215,58.58a14.86,14.86,0,0,1-11.39,4.75,12.88,12.88,0,0,1-9.88-4.24V73Zm17.15-18.17a8.17,8.17,0,0,0,6.08-2.37,9,9,0,0,0,2.34-6.56,8.94,8.94,0,0,0-2.34-6.55A8.17,8.17,0,0,0,201.21,37a9.11,9.11,0,0,0-4.43,1.14,6.93,6.93,0,0,0-3,3.16v9.31a7,7,0,0,0,3,3.1A9.11,9.11,0,0,0,201.21,54.85Z"/><path class="cls-2" d="M247.61,62.51V59.09a13.12,13.12,0,0,1-9.87,4.24,14.88,14.88,0,0,1-11.4-4.75q-4.43-4.74-4.43-12.66t4.43-12.66a14.91,14.91,0,0,1,11.4-4.74,12.91,12.91,0,0,1,9.87,4.3V29.34h9.68V62.51Zm-7.47-7.66a8.94,8.94,0,0,0,4.4-1.14,7.4,7.4,0,0,0,3.07-3.1V41.3a7.31,7.31,0,0,0-3.07-3.16,8.94,8.94,0,0,0-4.4-1.14,8.17,8.17,0,0,0-6.08,2.37,8.94,8.94,0,0,0-2.34,6.55,9,9,0,0,0,2.34,6.56A8.17,8.17,0,0,0,240.14,54.85Z"/><path class="cls-2" d="M263.18,73V29.34h9.69v3.48a12.65,12.65,0,0,1,9.87-4.3,14.89,14.89,0,0,1,11.39,4.74q4.44,4.76,4.43,12.66t-4.43,12.66a14.86,14.86,0,0,1-11.39,4.75,12.85,12.85,0,0,1-9.87-4.24V73Zm17.15-18.17a8.17,8.17,0,0,0,6.08-2.37,9,9,0,0,0,2.34-6.56,8.94,8.94,0,0,0-2.34-6.55A8.17,8.17,0,0,0,280.33,37a9.13,9.13,0,0,0-4.43,1.14,6.85,6.85,0,0,0-3,3.16v9.31a6.92,6.92,0,0,0,3,3.1A9.13,9.13,0,0,0,280.33,54.85Z"/><path class="cls-2" d="M319,63.39q-8.1,0-13-5A16.87,16.87,0,0,1,301,46.05q0-7.78,4.78-12.66A16.34,16.34,0,0,1,318,28.52q7.28,0,11.61,4.43T334,44.66a30.87,30.87,0,0,1-.32,4h-23q1.34,6.51,8.93,6.52A10.45,10.45,0,0,0,328,50.86l5.13,6.39A18.22,18.22,0,0,1,319,63.39ZM318,36.3a6.77,6.77,0,0,0-7.09,5.32h13.67a5.45,5.45,0,0,0-2-4A7.29,7.29,0,0,0,318,36.3Z"/><path class="cls-2" d="M338.12,62.51V29.34h9.69v4.75q3-5.58,8.86-5.57h1.14v9.11a14.37,14.37,0,0,0-6.42,1.24,7.24,7.24,0,0,0-3.58,4.59v19Z"/><path class="cls-2" d="M360.34,58.08a5.13,5.13,0,1,1,5.13,5.12A5.19,5.19,0,0,1,360.34,58.08Z"/></svg>